HIERARCHY
ROOT Hips
{
    OFFSET 0.000000 0.000000 0.000000
    CHANNELS 6 Xposition Yposition Zposition Zrotation Xrotation Yrotation
    JOINT Spine
    {
        OFFSET -0.000000 8.249566 0.000000
        CHANNELS 3 Zrotation Xrotation Yrotation
        JOINT Spine1
        {
            OFFSET -0.000000 22.751984 0.000000
            CHANNELS 3 Zrotation Xrotation Yrotation
            JOINT Neck
            {
                OFFSET -0.000000 22.658548 2.059868
                CHANNELS 3 Zrotation Xrotation Yrotation
                JOINT Head
                {
                    OFFSET -0.000000 14.084625 -2.012089
                    CHANNELS 3 Zrotation Xrotation Yrotation
                    End Site
                    {
                        OFFSET -0.000000 25.151115 0.000000
                    }
                }
            }
            JOINT LeftShoulder
            {
                OFFSET 4.014710 20.418900 0.142539
                CHANNELS 3 Zrotation Xrotation Yrotation
                JOINT LeftArm
                {
                    OFFSET 12.409162 0.000000 0.000000
                    CHANNELS 3 Zrotation Xrotation Yrotation
                    JOINT LeftForeArm
                    {
                        OFFSET 32.111938 0.000000 0.000000
                        CHANNELS 3 Zrotation Xrotation Yrotation
                        JOINT LeftHand
                        {
                            OFFSET 25.320286 0.000000 0.000000
                            CHANNELS 3 Zrotation Xrotation Yrotation
                            End Site
                            {
                                OFFSET 15.090670 0.000000 0.000000
                            }
                        }
                    }
                }
            }
            JOINT RightShoulder
            {
                OFFSET -4.019371 20.418900 0.142539
                CHANNELS 3 Zrotation Xrotation Yrotation
                JOINT RightArm
                {
                    OFFSET -12.409162 0.000000 0.000000
                    CHANNELS 3 Zrotation Xrotation Yrotation
                    JOINT RightForeArm
                    {
                        OFFSET -32.111938 0.000000 0.000000
                        CHANNELS 3 Zrotation Xrotation Yrotation
                        JOINT RightHand
                        {
                            OFFSET -25.320286 0.000000 0.000000
                            CHANNELS 3 Zrotation Xrotation Yrotation
                            End Site
                            {
                                OFFSET -15.090670 0.000000 0.000000
                            }
                        }
                    }
                }
            }
        }
    }
    JOINT LeftUpLeg
    {
        OFFSET 10.060447 0.000000 0.000000
        CHANNELS 3 Zrotation Xrotation Yrotation
        JOINT LeftLeg
        {
            OFFSET -0.000000 -49.683781 0.000000
            CHANNELS 3 Zrotation Xrotation Yrotation
            JOINT LeftFoot
            {
                OFFSET -0.000000 -37.035061 0.000000
                CHANNELS 3 Zrotation Xrotation Yrotation
                JOINT LeftToeBase
                {
                    OFFSET -0.000000 -6.539289 15.090670
                    CHANNELS 3 Zrotation Xrotation Yrotation
                    End Site
                    {
                        OFFSET -0.000000 0.000000 4.024179
                    }
                }
            }
        }
    }
    JOINT RightUpLeg
    {
        OFFSET -10.060447 0.000000 0.000000
        CHANNELS 3 Zrotation Xrotation Yrotation
        JOINT RightLeg
        {
            OFFSET -0.000000 -49.683781 0.000000
            CHANNELS 3 Zrotation Xrotation Yrotation
            JOINT RightFoot
            {
                OFFSET -0.000000 -37.035061 0.000000
                CHANNELS 3 Zrotation Xrotation Yrotation
                JOINT RightToeBase
                {
                    OFFSET -0.000000 -6.539289 15.090670
                    CHANNELS 3 Zrotation Xrotation Yrotation
                    End Site
                    {
                        OFFSET -0.000000 0.000000 4.024179
                    }
                }
            }
        }
    }
}
MOTION
Frames:    9
Frame Time:    0.008333
-36.013191    95.754066    88.160919    -1.535261    -8.661510    152.266846    -0.636737    7.082510    -4.012971    1.733334    1.846849    -4.080324    11.584073    6.216287    7.994249    -5.567330    4.727989    6.678350    11.819820    3.474777    -13.283025    -37.342972    38.750114    -45.961235    -29.317711    -23.115309    -88.314453    4.839791    -16.103086    -19.836819    -0.772862    10.589997    -4.148820    46.868084    48.713863    26.018076    -7.810884    -17.521538    81.517494    -3.244540    -11.246843    9.458403    -1.040428    -7.820971    13.489457    -0.586958    22.496410    10.634764    1.646074    -17.483700    9.392801    0.000000    0.000000    0.000000    0.910110    -34.402042    -11.454727    2.565453    31.538248    -6.317159    5.814236    0.711369    -11.858361    0.000000    0.000000    0.000000    
-35.817902    95.784676    87.628265    -1.598557    -8.131050    151.065384    -0.999870    7.386087    -3.840532    1.938627    2.151078    -3.941492    11.534252    6.386140    8.377026    -5.774674    4.517060    7.068352    11.951414    3.330920    -13.368835    -37.467590    38.596985    -45.868565    -13.469010    -21.288507    -83.459373    7.066571    -33.066784    -18.667635    -0.804545    10.547990    -4.114738    46.698486    48.778389    26.216007    -7.821936    -17.421782    81.586769    -3.314749    -11.127590    9.290854    -1.242577    -7.026613    14.108374    -0.738093    22.691601    10.854527    1.367502    -17.237986    9.701816    0.000000    0.000000    0.000000    1.459502    -33.578953    -11.798703    2.692396    30.490536    -7.212349    4.472288    0.869929    -12.271851    0.000000    0.000000    0.000000    
-35.781300    95.760330    87.209763    -1.861436    -8.161015    150.127197    -0.984751    7.309747    -3.847216    1.905615    2.246833    -3.947527    11.729803    6.455468    8.843105    -6.321620    4.537329    7.488477    12.181381    3.234764    -13.544597    -37.547489    38.424370    -45.842312    -11.956399    -21.353331    -82.383675    1.091533    -30.979088    -22.047361    -0.823093    10.506831    -4.022601    46.627064    48.753326    26.177336    -7.982536    -17.131592    81.599121    -3.665167    -10.724279    9.473925    -1.480245    -7.128009    14.235772    -0.873371    23.126669    11.552557    1.311230    -16.969755    9.960732    0.000000    0.000000    0.000000    1.898279    -33.535515    -12.798723    2.530473    29.764021    -8.020520    3.097488    1.025651    -12.812379    0.000000    0.000000    0.000000    
-35.738285    95.723801    86.783432    -2.133049    -8.159990    149.205460    -0.891869    7.240109    -3.899472    1.827694    2.327979    -3.993077    11.532641    6.544333    9.291410    -6.457179    4.448009    7.964559    12.255478    3.227501    -13.508403    -37.379101    38.323223    -45.931286    -12.706913    -21.207354    -83.170525    0.854906    -31.514889    -22.276545    -0.881391    10.456602    -4.009793    46.298672    48.989990    26.624144    -8.273739    -17.126181    81.406517    -3.322857    -10.466077    9.493259    -1.742105    -7.272840    14.414937    -0.882746    23.754715    12.233315    0.908246    -16.853571    9.954668    0.000000    0.000000    0.000000    2.287118    -33.471390    -13.931561    2.238492    29.217405    -8.527504    2.007704    0.930399    -13.549213    0.000000    0.000000    0.000000    
-35.698284    95.680893    86.351463    -2.414753    -8.143741    148.274216    -0.746687    7.195649    -3.983916    1.634752    2.350937    -4.064441    11.472764    6.928452    9.776387    -6.837198    3.956916    8.447566    12.321062    3.242976    -13.376610    -37.129185    38.323692    -46.017811    -13.228170    -21.090652    -84.018120    0.909117    -31.971075    -22.128096    -0.813369    10.487063    -3.886912    46.020287    48.937397    26.855513    -8.287181    -16.962603    81.498596    -3.027598    -10.239580    9.067784    -1.992938    -7.436721    14.440415    -1.009371    24.393486    13.105645    0.822475    -16.500246    9.918102    0.000000    0.000000    0.000000    2.600599    -33.387371    -14.739757    2.235103    28.698990    -9.510198    0.610141    0.808869    -14.055894    0.000000    0.000000    0.000000    
-35.623344    95.626419    85.880623    -2.660965    -8.086005    147.267914    -0.726617    7.143003    -3.983882    1.705547    2.406418    -4.065099    11.224136    7.142333    10.185773    -7.057333    3.869218    8.889357    12.236585    2.986191    -13.470802    -37.129471    38.354187    -45.784889    -13.455714    -20.784805    -84.423492    2.818329    -32.220299    -20.174650    -0.955866    10.486880    -3.773860    45.824421    49.105114    27.122400    -8.531372    -17.050537    81.253281    -2.517288    -10.115415    9.194757    -2.201262    -7.620312    14.940116    -0.873999    25.380579    13.181149    0.252148    -16.468155    10.006945    0.000000    0.000000    0.000000    3.101460    -33.229851    -15.778734    1.588818    28.289558    -9.934289    -0.437063    0.564365    -14.006510    0.000000    0.000000    0.000000    
-35.581875    95.588943    85.433945    -3.009495    -8.036689    146.319702    -0.854279    7.325128    -3.845284    1.855984    2.020128    -3.932723    11.297746    7.314869    10.491413    -7.587300    4.045218    9.174265    12.268872    2.995055    -13.881876    -37.503277    37.905670    -45.634117    -13.593319    -20.030237    -84.446617    3.895020    -31.799906    -19.731749    -0.918973    10.591072    -3.931754    45.682526    49.042095    26.917957    -8.385243    -16.838741    81.366035    -2.336943    -9.997426    9.386246    -2.442005    -7.995224    15.111906    -1.078580    26.412220    14.110783    -0.134438    -16.108160    9.952656    0.000000    0.000000    0.000000    3.343574    -33.166306    -16.481960    1.470332    27.826406    -10.713415    -2.121100    0.849752    -13.774356    0.000000    0.000000    0.000000    
-35.522327    95.539764    84.966934    -3.340362    -8.000348    145.269272    -0.785522    7.247185    -3.799623    1.733189    1.920519    -3.878448    11.105205    7.832728    10.860681    -7.776977    3.696115    9.584723    12.274931    2.986460    -14.086473    -37.357136    37.767822    -45.592537    -13.421380    -19.581293    -84.025650    3.155789    -31.128317    -22.176043    -0.838582    10.700311    -3.783327    45.286335    49.235363    27.219017    -8.429109    -17.128386    80.961952    -1.709842    -10.267793    10.020866    -2.613966    -8.445957    15.372570    -1.220420    27.721657    14.866381    -0.636179    -15.781322    9.768414    0.000000    0.000000    0.000000    3.683803    -33.099346    -17.076952    0.962627    27.357454    -11.032537    -3.629370    1.346613    -12.692325    0.000000    0.000000    0.000000    
-35.435787    95.477318    84.463593    -3.416310    -7.847785    144.267685    -0.539243    7.381145    -3.745981    1.551185    2.194186    -3.810496    11.115014    7.322504    11.305504    -8.088426    4.234062    10.000309    12.688526    2.636767    -13.919456    -37.398033    37.596066    -46.005238    -13.456396    -19.047161    -83.648598    4.457395    -30.804811    -21.736521    -0.981016    10.446543    -3.845232    45.294437    49.433495    27.276119    -8.107527    -17.234060    81.086227    -1.523371    -10.618341    10.060635    -2.601960    -8.732757    15.627913    -1.380101    29.242947    15.755609    -1.241754    -15.467422    9.421166    0.000000    0.000000    0.000000    4.094415    -32.784744    -17.483913    0.497242    26.979456    -11.262664    -4.893412    1.713736    -11.367004    0.000000    0.000000    0.000000    
